<svg xmlns="http://www.w3.org/2000/svg"  viewBox="0 0 512 512" width="64px" height="64px"><path fill="#e8f1fd" d="M336,301v155c-12.764,0-216.234,0-230,0V301H336z"/><path fill="#e8f1fd" d="M336,261H106V61h230C336,78.335,336,233.51,336,261z"/><rect width="75" height="35" x="261" y="456" fill="#cfdbfd"/><rect width="75" height="35" x="106" y="456" fill="#cfdbfd"/><polygon fill="#6594e2" points="261,456 261,491 221,491 221,376 261,376"/><polygon fill="#8bcafc" points="221,376 221,491 181,491 181,456 181,376"/><path fill="#addc4e" d="M56,386c-13.81,0-25-30.22-25-67.5S42.19,251,56,251s25,30.22,25,67.5 S69.81,386,56,386z"/><rect width="40" height="40" x="261" y="101" fill="#6594e2"/><rect width="40" height="40" x="181" y="101" fill="#6594e2"/><rect width="40" height="40" x="141" y="141" fill="#6594e2"/><path fill="#d63333" d="M491,106v30c-31.289,0-118.478,0-155,0v-30H491z"/><path fill="#c0cdfc" d="M471,136v355H336c0-12.542,0-306.517,0-355H471z"/><path fill="#d63333" d="M361,21v40h-25c-12.877,0-243.459,0-255,0V21H361z"/><rect width="230" height="40" x="106" y="261" fill="#cfdbfd"/><rect width="40" height="40" x="261" y="181" fill="#6594e2"/><rect width="40" height="40" x="261" y="141" fill="#8bcafc"/><rect width="40" height="40" x="221" y="181" fill="#8bcafc"/><rect width="40" height="40" x="221" y="141" fill="#6594e2"/><rect width="40" height="40" x="221" y="101" fill="#8bcafc"/><rect width="40" height="40" x="181" y="181" fill="#6594e2"/><rect width="40" height="40" x="181" y="141" fill="#8bcafc"/><rect width="40" height="40" x="141" y="181" fill="#8bcafc"/><rect width="40" height="40" x="141" y="101" fill="#8bcafc"/><path d="M141,146c-2.761,0-5-2.239-5-5v-40c0-2.761,2.239-5,5-5h40c2.761,0,5,2.239,5,5s-2.239,5-5,5h-35v35 C146,143.761,143.761,146,141,146z"/><path d="M181,146c-2.761,0-5-2.239-5-5v-40c0-2.761,2.239-5,5-5h40c2.761,0,5,2.239,5,5s-2.239,5-5,5h-35v35 C186,143.761,183.761,146,181,146z"/><path d="M221,146c-2.761,0-5-2.239-5-5v-40c0-2.761,2.239-5,5-5h40c2.761,0,5,2.239,5,5s-2.239,5-5,5h-35v35 C226,143.761,223.761,146,221,146z"/><path d="M301,146c-2.762,0-5-2.239-5-5v-35h-30v35c0,2.761-2.239,5-5,5c-2.761,0-5-2.239-5-5v-40 c0-2.761,2.239-5,5-5h40c2.762,0,5,2.239,5,5v40C306,143.761,303.762,146,301,146z"/><path d="M181,226h-40c-2.761,0-5-2.239-5-5v-40c0-2.761,2.239-5,5-5c2.761,0,5,2.239,5,5v35h35 c2.761,0,5,2.239,5,5S183.761,226,181,226z"/><path d="M221,226h-40c-2.761,0-5-2.239-5-5v-40c0-2.761,2.239-5,5-5c2.761,0,5,2.239,5,5v35h35 c2.761,0,5,2.239,5,5S223.761,226,221,226z"/><path d="M261,226h-40c-2.761,0-5-2.239-5-5v-40c0-2.761,2.239-5,5-5c2.761,0,5,2.239,5,5v35h35 c2.761,0,5,2.239,5,5S263.761,226,261,226z"/><path d="M301,226h-40c-2.761,0-5-2.239-5-5v-40c0-2.761,2.239-5,5-5c2.761,0,5,2.239,5,5v35h30v-35 c0-2.761,2.238-5,5-5c2.762,0,5,2.239,5,5v40C306,223.761,303.762,226,301,226z"/><path d="M181,186h-40c-2.761,0-5-2.239-5-5v-40c0-2.761,2.239-5,5-5h40c2.761,0,5,2.239,5,5s-2.239,5-5,5h-35v30 h35c2.761,0,5,2.239,5,5S183.761,186,181,186z"/><path d="M221,186h-40c-2.761,0-5-2.239-5-5v-40c0-2.761,2.239-5,5-5h40c2.761,0,5,2.239,5,5s-2.239,5-5,5h-35v30 h35c2.761,0,5,2.239,5,5S223.761,186,221,186z"/><path d="M261,186h-40c-2.761,0-5-2.239-5-5v-40c0-2.761,2.239-5,5-5h40c2.761,0,5,2.239,5,5s-2.239,5-5,5h-35v30 h35c2.761,0,5,2.239,5,5S263.761,186,261,186z"/><path d="M301,186h-40c-2.761,0-5-2.239-5-5v-40c0-2.761,2.239-5,5-5h40c2.762,0,5,2.239,5,5v40 C306,183.761,303.762,186,301,186z M266,176h30v-30h-30V176z"/><path d="M361,66h-25c-2.762,0-5-2.239-5-5s2.238-5,5-5h20V26H86v30h20c2.761,0,5,2.239,5,5s-2.239,5-5,5H81 c-2.761,0-5-2.239-5-5V21c0-2.761,2.239-5,5-5h280c2.762,0,5,2.239,5,5v40C366,63.761,363.762,66,361,66z"/><path d="M106,266c-2.761,0-5-2.239-5-5V61c0-2.761,2.239-5,5-5h230c2.762,0,5,2.239,5,5v45c0,2.761-2.238,5-5,5 c-2.762,0-5-2.239-5-5V66H111v195C111,263.761,108.761,266,106,266z"/><path d="M106,496c-2.761,0-5-2.238-5-5V301c0-2.762,2.239-5,5-5c2.761,0,5,2.238,5,5v190 C111,493.762,108.761,496,106,496z"/><path d="M336,306H106c-2.761,0-5-2.238-5-5v-40c0-2.761,2.239-5,5-5h230c2.762,0,5,2.239,5,5s-2.238,5-5,5H111v30 h225c2.762,0,5,2.238,5,5C341,303.762,338.762,306,336,306z"/><path d="M261,496c-2.761,0-5-2.238-5-5V381h-70v110c0,2.762-2.239,5-5,5c-2.761,0-5-2.238-5-5V376 c0-2.762,2.239-5,5-5h80c2.761,0,5,2.238,5,5v115C266,493.762,263.761,496,261,496z"/><path d="M336,461h-75c-2.761,0-5-2.238-5-5c0-2.762,2.239-5,5-5h75c2.762,0,5,2.238,5,5 C341,458.762,338.762,461,336,461z"/><path d="M181,461h-75c-2.761,0-5-2.238-5-5c0-2.762,2.239-5,5-5h75c2.761,0,5,2.238,5,5 C186,458.762,183.761,461,181,461z"/><path d="M221,496c-2.761,0-5-2.238-5-5V376c0-2.762,2.239-5,5-5c2.761,0,5,2.238,5,5v115 C226,493.762,223.761,496,221,496z"/><path d="M471,496c-2.762,0-5-2.238-5-5V136c0-2.761,2.238-5,5-5c2.762,0,5,2.239,5,5v355 C476,493.762,473.762,496,471,496z"/><path d="M336,496c-2.762,0-5-2.238-5-5V136c0-2.761,2.238-5,5-5c2.762,0,5,2.239,5,5v355 C341,493.762,338.762,496,336,496z"/><path d="M366,196c-2.762,0-5-2.239-5-5v-30c0-2.761,2.238-5,5-5c2.762,0,5,2.239,5,5v30 C371,193.761,368.762,196,366,196z"/><path d="M366,226c-2.762,0-5-2.239-5-5v-10c0-2.761,2.238-5,5-5c2.762,0,5,2.239,5,5v10 C371,223.761,368.762,226,366,226z"/><path d="M391,196c-2.762,0-5-2.239-5-5v-30c0-2.761,2.238-5,5-5c2.762,0,5,2.239,5,5v30 C396,193.761,393.762,196,391,196z"/><path d="M391,226c-2.762,0-5-2.239-5-5v-10c0-2.761,2.238-5,5-5c2.762,0,5,2.239,5,5v10 C396,223.761,393.762,226,391,226z"/><path d="M416,196c-2.762,0-5-2.239-5-5v-30c0-2.761,2.238-5,5-5c2.762,0,5,2.239,5,5v30 C421,193.761,418.762,196,416,196z"/><path d="M416,226c-2.762,0-5-2.239-5-5v-10c0-2.761,2.238-5,5-5c2.762,0,5,2.239,5,5v10 C421,223.761,418.762,226,416,226z"/><path d="M441,196c-2.762,0-5-2.239-5-5v-30c0-2.761,2.238-5,5-5c2.762,0,5,2.239,5,5v30 C446,193.761,443.762,196,441,196z"/><path d="M441,226c-2.762,0-5-2.239-5-5v-10c0-2.761,2.238-5,5-5c2.762,0,5,2.239,5,5v10 C446,223.761,443.762,226,441,226z"/><path d="M366,276c-2.762,0-5-2.238-5-5v-30c0-2.761,2.238-5,5-5c2.762,0,5,2.239,5,5v30 C371,273.762,368.762,276,366,276z"/><path d="M366,306c-2.762,0-5-2.238-5-5v-10c0-2.762,2.238-5,5-5c2.762,0,5,2.238,5,5v10 C371,303.762,368.762,306,366,306z"/><path d="M391,276c-2.762,0-5-2.238-5-5v-30c0-2.761,2.238-5,5-5c2.762,0,5,2.239,5,5v30 C396,273.762,393.762,276,391,276z"/><path d="M391,306c-2.762,0-5-2.238-5-5v-10c0-2.762,2.238-5,5-5c2.762,0,5,2.238,5,5v10 C396,303.762,393.762,306,391,306z"/><path d="M416,276c-2.762,0-5-2.238-5-5v-30c0-2.761,2.238-5,5-5c2.762,0,5,2.239,5,5v30 C421,273.762,418.762,276,416,276z"/><path d="M416,306c-2.762,0-5-2.238-5-5v-10c0-2.762,2.238-5,5-5c2.762,0,5,2.238,5,5v10 C421,303.762,418.762,306,416,306z"/><path d="M441,276c-2.762,0-5-2.238-5-5v-30c0-2.761,2.238-5,5-5c2.762,0,5,2.239,5,5v30 C446,273.762,443.762,276,441,276z"/><path d="M441,306c-2.762,0-5-2.238-5-5v-10c0-2.762,2.238-5,5-5c2.762,0,5,2.238,5,5v10 C446,303.762,443.762,306,441,306z"/><path d="M366,356c-2.762,0-5-2.238-5-5v-30c0-2.762,2.238-5,5-5c2.762,0,5,2.238,5,5v30 C371,353.762,368.762,356,366,356z"/><path d="M366,386c-2.762,0-5-2.238-5-5v-10c0-2.762,2.238-5,5-5c2.762,0,5,2.238,5,5v10 C371,383.762,368.762,386,366,386z"/><path d="M391,356c-2.762,0-5-2.238-5-5v-30c0-2.762,2.238-5,5-5c2.762,0,5,2.238,5,5v30 C396,353.762,393.762,356,391,356z"/><path d="M391,386c-2.762,0-5-2.238-5-5v-10c0-2.762,2.238-5,5-5c2.762,0,5,2.238,5,5v10 C396,383.762,393.762,386,391,386z"/><path d="M416,356c-2.762,0-5-2.238-5-5v-30c0-2.762,2.238-5,5-5c2.762,0,5,2.238,5,5v30 C421,353.762,418.762,356,416,356z"/><path d="M416,386c-2.762,0-5-2.238-5-5v-10c0-2.762,2.238-5,5-5c2.762,0,5,2.238,5,5v10 C421,383.762,418.762,386,416,386z"/><path d="M441,356c-2.762,0-5-2.238-5-5v-30c0-2.762,2.238-5,5-5c2.762,0,5,2.238,5,5v30 C446,353.762,443.762,356,441,356z"/><path d="M441,386c-2.762,0-5-2.238-5-5v-10c0-2.762,2.238-5,5-5c2.762,0,5,2.238,5,5v10 C446,383.762,443.762,386,441,386z"/><path d="M366,436c-2.762,0-5-2.238-5-5v-30c0-2.762,2.238-5,5-5c2.762,0,5,2.238,5,5v30 C371,433.762,368.762,436,366,436z"/><path d="M366,466c-2.762,0-5-2.238-5-5v-10c0-2.762,2.238-5,5-5c2.762,0,5,2.238,5,5v10 C371,463.762,368.762,466,366,466z"/><path d="M391,436c-2.762,0-5-2.238-5-5v-30c0-2.762,2.238-5,5-5c2.762,0,5,2.238,5,5v30 C396,433.762,393.762,436,391,436z"/><path d="M391,466c-2.762,0-5-2.238-5-5v-10c0-2.762,2.238-5,5-5c2.762,0,5,2.238,5,5v10 C396,463.762,393.762,466,391,466z"/><path d="M416,436c-2.762,0-5-2.238-5-5v-30c0-2.762,2.238-5,5-5c2.762,0,5,2.238,5,5v30 C421,433.762,418.762,436,416,436z"/><path d="M416,466c-2.762,0-5-2.238-5-5v-10c0-2.762,2.238-5,5-5c2.762,0,5,2.238,5,5v10 C421,463.762,418.762,466,416,466z"/><path d="M441,436c-2.762,0-5-2.238-5-5v-30c0-2.762,2.238-5,5-5c2.762,0,5,2.238,5,5v30 C446,433.762,443.762,436,441,436z"/><path d="M441,466c-2.762,0-5-2.238-5-5v-10c0-2.762,2.238-5,5-5c2.762,0,5,2.238,5,5v10 C446,463.762,443.762,466,441,466z"/><path d="M491,141H336c-2.762,0-5-2.239-5-5v-30c0-2.761,2.238-5,5-5h155c2.762,0,5,2.239,5,5v30 C496,138.761,493.762,141,491,141z M341,131h145v-20H341V131z"/><path d="M56,391c-19.486,0-30-37.353-30-72.5S36.514,246,56,246c19.486,0,30,37.354,30,72.5S75.486,391,56,391z M56,256c-8.352,0-20,23.777-20,62.5S47.648,381,56,381c8.351,0,20-23.777,20-62.5S64.352,256,56,256z"/><path d="M56,496c-2.761,0-5-2.238-5-5V326c0-2.762,2.239-5,5-5c2.761,0,5,2.238,5,5v165 C61,493.762,58.761,496,56,496z"/><path d="M491,496H21c-2.761,0-5-2.238-5-5c0-2.762,2.239-5,5-5h470c2.762,0,5,2.238,5,5 C496,493.762,493.762,496,491,496z"/></svg>